<svg width="114" height="26" viewBox="0 0 114 26" fill="none" xmlns="http://www.w3.org/2000/svg">
<path d="M31.0337 12.1098V7.86473H33.4457C34.9122 7.86473 35.7998 8.69444 35.7998 10.0065C35.7998 11.2994 34.9122 12.1098 33.4457 12.1098H31.0337ZM33.793 14.1551C36.4172 14.1551 38.1538 12.3992 38.1538 9.98725C38.1538 7.59459 36.4172 5.81939 33.793 5.81939H28.7183V19.5H31.0337V14.1551H33.793ZM45.3871 10.0451C45.2906 10.0258 45.0591 9.98725 44.789 9.98725C43.554 9.98725 42.5121 10.5854 42.0683 11.6081V10.103H39.8879V19.5H42.1262V15.0234C42.1262 13.2675 42.9173 12.2641 44.6539 12.2641C44.8854 12.2641 45.1363 12.2834 45.3871 12.322V10.0451ZM51.2907 17.7827C49.9207 17.7827 48.6665 16.7407 48.6665 14.7919C48.6665 12.843 49.9207 11.8396 51.2907 11.8396C52.68 11.8396 53.9149 12.843 53.9149 14.7919C53.9149 16.76 52.68 17.7827 51.2907 17.7827ZM51.2907 9.81359C48.4928 9.81359 46.4282 11.9168 46.4282 14.7919C46.4282 17.6862 48.4928 19.7894 51.2907 19.7894C54.1079 19.7894 56.1725 17.6862 56.1725 14.7919C56.1725 11.9168 54.1079 9.81359 51.2907 9.81359ZM60.5546 19.5V13.9236C60.5546 12.7272 61.3071 11.8396 62.5034 11.8396C63.7769 11.8396 64.3172 12.6886 64.3172 13.7692V19.5H66.5169V13.9236C66.5169 12.7658 67.2887 11.8396 68.4658 11.8396C69.72 11.8396 70.2796 12.6693 70.2796 13.7692V19.5H72.4407V13.4026C72.4407 10.9134 70.8198 9.83288 69.1218 9.83288C67.9062 9.83288 66.8063 10.2574 66.0731 11.4923C65.5714 10.3925 64.4909 9.83288 63.2559 9.83288C62.1947 9.83288 61.0176 10.3346 60.4774 11.2994V10.103H58.3356V19.5H60.5546ZM76.7445 13.7692C76.8217 12.7658 77.6321 11.6853 79.0407 11.6853C80.5843 11.6853 81.3176 12.6693 81.3562 13.7692H76.7445ZM81.607 16.2197C81.2983 17.1459 80.6036 17.8599 79.2529 17.8599C77.8637 17.8599 76.7445 16.8372 76.6866 15.4093H83.5559C83.5752 15.3707 83.6138 15.062 83.6138 14.6954C83.6138 11.7239 81.9157 9.81359 79.0214 9.81359C76.648 9.81359 74.4483 11.7817 74.4483 14.7533C74.4483 17.9371 76.7059 19.7894 79.2529 19.7894C81.5105 19.7894 82.9963 18.458 83.498 16.8179L81.607 16.2197ZM88.5892 7.22797H86.5631V8.63655C86.5631 9.46627 86.1193 10.103 85.1159 10.103H84.6336V12.0905H86.3702V16.8179C86.3702 18.5738 87.4507 19.6158 89.1873 19.6158C89.9977 19.6158 90.4222 19.4614 90.5573 19.4035V17.5511C90.4608 17.5704 90.0942 17.6283 89.7855 17.6283C88.9558 17.6283 88.5892 17.281 88.5892 16.4513V12.0905H90.538V10.103H88.5892V7.22797ZM94.3066 13.7692C94.3837 12.7658 95.1942 11.6853 96.6027 11.6853C98.1464 11.6853 98.8796 12.6693 98.9182 13.7692H94.3066ZM99.1691 16.2197C98.8603 17.1459 98.1657 17.8599 96.815 17.8599C95.4257 17.8599 94.3066 16.8372 94.2487 15.4093H101.118C101.137 15.3707 101.176 15.062 101.176 14.6954C101.176 11.7239 99.4778 9.81359 96.5834 9.81359C94.2101 9.81359 92.0104 11.7817 92.0104 14.7533C92.0104 17.9371 94.268 19.7894 96.815 19.7894C99.0726 19.7894 100.558 18.458 101.06 16.8179L99.1691 16.2197ZM107.444 17.7827C106.074 17.7827 104.82 16.7407 104.82 14.7919C104.82 12.843 106.074 11.8396 107.444 11.8396C108.833 11.8396 110.068 12.843 110.068 14.7919C110.068 16.76 108.833 17.7827 107.444 17.7827ZM107.444 9.81359C104.646 9.81359 102.582 11.9168 102.582 14.7919C102.582 17.6862 104.646 19.7894 107.444 19.7894C110.261 19.7894 112.326 17.6862 112.326 14.7919C112.326 11.9168 110.261 9.81359 107.444 9.81359Z" fill="#2A2F36"/>
<path fill-rule="evenodd" clip-rule="evenodd" d="M12.7586 23.4974L4.66368 18.3734C4.48726 18.2617 4.39484 18.0553 4.42905 17.8493L6.17415 7.34187C6.22116 7.05883 6.48871 6.86749 6.77175 6.9145C6.88504 6.93332 6.98891 6.98915 7.06711 7.07326L16.8643 17.6114C17.029 17.7886 17.0496 18.056 16.914 18.2563L13.4666 23.3496C13.3093 23.5821 12.9957 23.6475 12.7586 23.4974Z" fill="url(#paint0_linear_2540_2279)"/>
<path fill-rule="evenodd" clip-rule="evenodd" d="M13.2355 24.073L7.21066 19.8827C7.01835 19.749 6.93934 19.5031 7.01775 19.2823L13.1163 2.11446C13.2123 1.8441 13.5093 1.70278 13.7797 1.79882C13.9242 1.85017 14.0387 1.96276 14.0924 2.10643L19.875 17.5735C19.9461 17.7636 19.8999 17.9777 19.7568 18.1217L13.9006 24.0127C13.7229 24.1915 13.4425 24.2169 13.2355 24.073Z" fill="url(#paint1_linear_2540_2279)"/>
<path fill-rule="evenodd" clip-rule="evenodd" d="M13.6091 24.436L10.6565 22.2686C10.4374 22.1077 10.3793 21.8053 10.5232 21.5747L19.5609 7.09482C19.7128 6.85142 20.0332 6.77727 20.2766 6.92918C20.4028 7.00795 20.4892 7.13703 20.5139 7.28373L22.2756 17.76C22.3072 17.9474 22.2338 18.1371 22.0845 18.2545L14.2376 24.4255C14.0542 24.5698 13.7972 24.574 13.6091 24.436Z" fill="url(#paint2_linear_2540_2279)"/>
<defs>
<linearGradient id="paint0_linear_2540_2279" x1="5.40219" y1="10.0448" x2="6.75269" y2="20.213" gradientUnits="userSpaceOnUse">
<stop stop-color="#BA121C"/>
<stop offset="1" stop-color="#460000"/>
</linearGradient>
<linearGradient id="paint1_linear_2540_2279" x1="13.9036" y1="3.2391" x2="13.1823" y2="24.6334" gradientUnits="userSpaceOnUse">
<stop stop-color="#ED5349"/>
<stop offset="1" stop-color="#AA0202"/>
</linearGradient>
<linearGradient id="paint2_linear_2540_2279" x1="21.4969" y1="10.0356" x2="16.5491" y2="23.8831" gradientUnits="userSpaceOnUse">
<stop stop-color="#FF5E67"/>
<stop offset="1" stop-color="#E80601"/>
</linearGradient>
</defs>
</svg>
