<?xml version="1.0" standalone="no"?>
<svg xmlns:xlink="http://www.w3.org/1999/xlink" id="wave" style="transform:rotate(0deg); transition: 0.3s" viewBox="0 0 1440 100" version="1.1" xmlns="http://www.w3.org/2000/svg"><defs><linearGradient id="sw-gradient-0" x1="0" x2="0" y1="1" y2="0"><stop stop-color="rgba(0, 0, 0, 1)" offset="0%"/><stop stop-color="rgba(154, 205, 50, 1)" offset="100%"/></linearGradient></defs><path style="transform:translate(0, 0px); opacity:1" fill="url(#sw-gradient-0)" d="M0,70L40,65C80,60,160,50,240,41.7C320,33,400,27,480,30C560,33,640,47,720,45C800,43,880,27,960,23.3C1040,20,1120,30,1200,35C1280,40,1360,40,1440,48.3C1520,57,1600,73,1680,70C1760,67,1840,43,1920,28.3C2000,13,2080,7,2160,8.3C2240,10,2320,20,2400,33.3C2480,47,2560,63,2640,68.3C2720,73,2800,67,2880,68.3C2960,70,3040,80,3120,83.3C3200,87,3280,83,3360,71.7C3440,60,3520,40,3600,41.7C3680,43,3760,67,3840,68.3C3920,70,4000,50,4080,48.3C4160,47,4240,63,4320,73.3C4400,83,4480,87,4560,73.3C4640,60,4720,30,4800,18.3C4880,7,4960,13,5040,23.3C5120,33,5200,47,5280,51.7C5360,57,5440,53,5520,46.7C5600,40,5680,30,5720,25L5760,20L5760,100L5720,100C5680,100,5600,100,5520,100C5440,100,5360,100,5280,100C5200,100,5120,100,5040,100C4960,100,4880,100,4800,100C4720,100,4640,100,4560,100C4480,100,4400,100,4320,100C4240,100,4160,100,4080,100C4000,100,3920,100,3840,100C3760,100,3680,100,3600,100C3520,100,3440,100,3360,100C3280,100,3200,100,3120,100C3040,100,2960,100,2880,100C2800,100,2720,100,2640,100C2560,100,2480,100,2400,100C2320,100,2240,100,2160,100C2080,100,2000,100,1920,100C1840,100,1760,100,1680,100C1600,100,1520,100,1440,100C1360,100,1280,100,1200,100C1120,100,1040,100,960,100C880,100,800,100,720,100C640,100,560,100,480,100C400,100,320,100,240,100C160,100,80,100,40,100L0,100Z"/></svg>